<?xml version="1.0" standalone="no"?>
<!DOCTYPE svg PUBLIC "-//W3C//DTD SVG 1.1//EN" "http://www.w3.org/Graphics/SVG/1.1/DTD/svg11.dtd" >
<svg xmlns="http://www.w3.org/2000/svg">
<metadata>Generated by IcoMoon</metadata>
<defs>
<font id="icomoon" horiz-adv-x="1024">
<font-face units-per-em="1024" ascent="960" descent="-64" />
<missing-glyph horiz-adv-x="1024" />
<glyph unicode="&#x20;" horiz-adv-x="512" d="" />
<glyph unicode="&#xe900;" horiz-adv-x="1707" d="M903.277 698.819c-5.559-14.149-11.64-28.11-15.788-42.788-9.245-32.666-13.761-65.981-14.738-99.898-0.756-26.632-7.633-51.551-23.956-73.146-9.185-12.149-20.845-21.748-33.442-30.164-9.372-6.255-18.256-13.145-27.073-20.129-4.75-3.766-6.362-8.202-5.318-14.276 1.652-9.62 5.412-18.002 12.162-25.053 0.977-1.017 1.893-2.094 2.81-3.158 14.497-16.858 15.634-26.899 5.285-46.48-5.479-10.362-5.486-10.376 5.833-14.624 5.813-2.181 11.647-4.295 17.454-6.482 0.709-0.268 1.318-0.803 2.81-1.746-5.158-4.375-9.861-8.576-14.791-12.47-3.137-2.469-3.612-4.937-1.418-8.235 1.773-2.669 3.224-5.579 5.72-7.707 4.944-4.188 6.188-9.419 5.272-15.721-1.157-7.974-2.984-15.634-6.034-23.187-8.422-20.912 2.843-45.691 24.444-54.715 14.129-5.907 29.094-7.874 44.199-8.081 25.341-0.348 50.695-0.468 76.029 0.013 31 0.589 52.307-13.701 64.295-41.563 7.84-18.216 6.208-36.974-1.478-55.050-1.753-4.134-3.372-8.108-3.619-12.57-0.93-16.724-6.549-32.111-13.125-47.283-2.167-4.977-5.472-6.63-10.75-6.73-53.384-1.010-102.627 13.774-149.335 38.573-76.196 40.453-132.042 99.363-163.237 180.423-15.567 40.446-22.558 82.21-19.728 125.761 1.592 24.464 1.907 48.962 5.967 73.246 6.73 40.292 22.892 76.718 45.437 110.321 34.579 51.551 78.685 93.242 132.591 124.229 16.417 9.439 34.044 16.116 52.796 19.481 0.214-0.268 0.462-0.535 0.729-0.789z" />
<glyph unicode="&#xe901;" horiz-adv-x="1707" d="M1039.587 26.305c2.756 1.585 4.743 2.723 6.723 3.86 48.735 28.278 90.425 64.141 120.235 112.568 21.882 35.543 33.014 74.176 32.72 116.094-0.161 23.354-0.060 46.668-6.824 69.346-9.038 30.345-26.538 55.599-47.397 78.825-11.031 12.302-23.307 23.341-35.101 34.88-36.8 36.038-70.115 74.811-93.871 120.944-14.51 28.177-24.444 57.659-23.541 89.897 0.321 11.48 2.228 22.718 6.65 34.753 4.261-20.27 9.78-38.934 16.718-57.184 20.671-54.388 54.247-98.941 100.614-134.156 17.929-13.607 34.9-28.458 51.866-43.296 42.761-37.389 68.965-84.324 77.146-140.057 12.784-87.067-11.085-163.31-74.698-225.117-34.486-33.522-77.722-51.237-124.275-61.184-1.813-0.381-3.619-1.907-6.964-0.174z" />
<glyph unicode="&#xe902;" horiz-adv-x="1707" d="M1294.701 259.168c-2.147 30.532-4.322 59.412-6.208 88.305-4.174 63.874-24.812 122.235-57.559 176.91-37.108 61.947-84.706 113.558-145.897 152.326-8.095 5.131-15.694 10.931-23.381 18.624 24.799-2.462 47.377-8.309 68.59-18.644 58.254-28.391 101.892-72.196 133.414-128.383 25.635-45.718 41.931-94.566 47.149-146.847 4.723-47.243-0.428-93.496-14.771-138.732-0.214-0.702-0.515-1.391-1.338-3.559z" />
<glyph unicode="&#xe903;" horiz-adv-x="1707" d="M1105.307 400.423c2.749 1.606 4.536-0.682 6.395-1.82 7.372-4.549 12.543-11.219 16.965-18.484 8.737-14.35 14.289-29.99 18.838-46.066 5.934-20.959 9.386-42.319 11.446-63.967 2.121-22.397-1.719-43.945-8.188-65.312-7.8-25.789-16.243-51.257-31.228-73.989-5.124-7.767-10.985-14.911-18.537-20.451-4.696-3.452-9.727-6.268-16.624-6.563 2.402 3.037 4.388 5.486 6.322 7.981 25.796 33.295 39.938 71.259 44.179 112.89 6.235 61.211-5.9 119.492-29.388 175.807l-0.181-0.027z" />
<glyph unicode="&#xe904;" horiz-adv-x="1707" d="M1041.862 654.747c4.041-3.017 6.322-6.496 8.596-9.914 6.001-9.024 12.102-17.989 17.761-27.221 28.846-46.969 68.088-84.043 111.337-117.332 2.542-1.96 5.098-3.907 7.606-5.907 0.401-0.314 0.595-0.876 1.365-2.081-15.206 1.070-29 4.676-42.186 10.563-34.981 15.647-59.418 42.44-78.21 74.979-12.851 22.257-20.711 46.407-25.883 71.487-0.308 1.485-0.227 3.057-0.388 5.425z" />
<glyph unicode="&#xe905;" horiz-adv-x="1707" d="M949.075 465.333c-20.377-7.693-40.011-14.771-60.783-20.745 0.669 4.649 2.703 7.874 4.322 11.172 2.174 4.469 0.93 6.235-3.82 6.609-8.79 0.689-16.999 2.622-22.672 10.429-2.121 2.917-2.047 4.429 1.311 5.787 3.519 1.418 6.911 3.171 10.456 4.522 7.044 2.703 11.64 8.021 16.122 14.189 0.542-3.646 0.903-7.325 1.652-10.918 1.713-8.128 5.178-11.085 13.487-12.042 8.369-0.957 16.905-0.248 25.167-2.355 5.011-1.291 9.854-2.97 14.758-6.65z" />
<glyph unicode="&#xe906;" horiz-adv-x="1707" d="M960.688 545.516c-4.562 0.355-9.111 0.736-13.674 1.064-13.908 1.003-27.696-0.020-41.363-2.716-5.078-1.003-9.934-0.783-14.664 1.492-1.98 0.95-4.281 1.365-3.907 4.435 0.355 2.87 2.094 4.014 4.69 4.669 9.018 2.275 18.156 3.365 27.441 2.984 13.895-0.569 28.686-4.502 41.476-11.928z" />
<glyph unicode="&#xe907;" horiz-adv-x="1707" d="M902.527 699.622c0.522 0.361 1.050 0.542 1.452-0.114 0.047-0.060-0.448-0.455-0.696-0.696-0.274 0.261-0.522 0.528-0.756 0.809z" />
<glyph unicode="&#xe908;" horiz-adv-x="1707" d="M1105.488 400.456c0.047 0.308 0.1 0.622 0.147 0.93 0.12-0.114 0.234-0.221 0.355-0.334-0.207-0.201-0.421-0.421-0.656-0.629-0.027 0 0.154 0.033 0.154 0.033z" />
<glyph unicode="&#xe909;" horiz-adv-x="1707" d="M1134.428 703.716c1.211 0.007 2.415 0.020 3.626 0.040 0.421-0.227 0.569-0.468 0.442-0.722-0.134-0.261-0.268-0.388-0.401-0.388-1.211 0-2.415 0-3.626 0-0.381 0.221-0.515 0.455-0.408 0.696 0.127 0.248 0.248 0.375 0.368 0.375z" />
<glyph unicode="&#xe90a;" horiz-adv-x="1707" d="M1134.428 703.716c0.027-0.361 0.040-0.709 0.047-1.070-0.803 0-1.599 0-2.408 0 0.428 1.151 1.371 1.164 2.361 1.070z" />
<glyph unicode="&#xe90b;" horiz-adv-x="1707" d="M1138.1 702.645c-0.007 0.375-0.020 0.736-0.047 1.11 1.024 0.087 1.933-0.094 2.455-1.11-0.803 0-1.606 0-2.408 0z" />
<glyph unicode="&#xe90c;" horiz-adv-x="1707" d="M842.5 729.679c-3.8-3.505-8.402-4.97-13.46-5.292-3.599 6.717-7.553 13.266-10.737 20.176-20.665 44.875-45.584 87.268-73.868 127.727-3.432 4.91-1.652 10.75 3.72 13.313 2.007 0.957 2.99-0.609 4.215-1.418 6.375-4.215 12.925-8.215 18.945-12.891 4.061-3.158 7.553-3.251 12.102-1.338 7.954 3.358 16.162 6.068 24.786 7.339 5.024 0.743 9.459-0.033 13.58-3.265 6.864-5.372 12.61-11.801 18.323-18.303 7.051-8.021 14.176-15.922 24.331-20.31 4.556-1.967 8.115-1.746 11.928 1.84 6.516 6.121 11.941 13.018 16.805 20.451 4.616 7.064 9.312 14.089 14.115 21.039 2.984 4.322 6.717 8.021 10.73 11.393 11.339 9.54 20.27 9.399 30.599-1.244 6.844-7.064 12.931-14.871 19.46-22.25 3.191-3.606 6.342-7.339 9.994-10.429 7.345-6.195 13.313-6.402 21.514-1.425 7.84 4.756 14.028 11.393 20.31 17.908 6.001 6.228 11.848 12.637 19.173 17.4 7.004 4.549 11.413 4.549 18.216-0.468 8.028-5.92 14.176-13.62 19.869-21.722 6.476-9.205 12.43-18.812 20.19-27.060 10.817-11.5 15.48-12.276 27.575-2.448 14.202 11.533 27.722 23.902 41.61 35.817 3.666 3.137 7.773 5.746 11.433 8.884 3.124 2.689 4.991 1.753 7.218-1.197 5.686-7.546 11.547-14.945 18.062-21.842 3.010-3.171 5.586-3.418 9.426-1.719 11.593 5.151 22.391 11.821 33.756 17.393 1.826 0.903 3.96 3.331 5.894 1.371 1.813-1.826-0.341-4.154-1.084-6.088-4.562-11.761-11.312-22.304-19.681-31.589-23.461-26.037-45.029-53.565-66.108-81.521-5.211-6.924-11.821-12.57-17.714-18.872-3.338 0.288-2.529 3.030-2.576 4.877-0.154 6.369 1.92 12.222 4.542 17.942 5.486 11.955 14.082 21.976 20.538 33.322 8.075 14.162 11.58 29.428 10.938 45.658-0.147 3.847-1.050 7.579-2.93 10.978-2.535 4.556-4.469 5.124-8.543 2.020-6.857-5.238-13.614-10.63-19.848-16.637-10.262-9.901-20.056-20.277-29.575-30.887-6.235-6.931-10.857-14.925-15.099-23.173-5.231-10.175-9.647-20.812-17.079-29.716-1.445-1.733-2.415-4.402-5.559-3.659-1.98-1.244-4.148-1.385-6.389-1.044-2.482 8.282-1.519 16.744-0.763 25.060 0.943 10.389 2.335 20.778 2.91 31.181 1.171 20.818-5.526 39.235-19.521 54.749-10.536 11.687-21.14 12.048-32.345 1.117-18.905-18.45-30.365-40.741-33.89-67.045-1.064-7.967-2.408-15.902-4.643-23.655-0.549-1.927-0.977-4.261-3.278-4.643-2.388-0.395-3.365 1.88-4.388 3.519-6.101 9.606-8.242 20.377-9.152 31.509-0.903 11.005-0.95 22.069-2.562 33.014-1.686 11.386-5.044 21.869-14.37 29.642-9.004 7.499-17.989 8.041-27.374 0.977-11.005-8.282-17.206-20.089-22.625-32.225-7.098-15.875-11.406-32.398-12.249-50.033-0.528-10.985 0.1-22.13-2.194-33.027-0.656-3.104-0.595-6.496-3.579-8.63-2.341-1.425-4.93-1.445-7.553-1.345-3.452 0.863-4.215 4.047-5.639 6.623-9.734 17.694-15.647 37.028-23.802 55.391-5.74 12.918-12.316 25.314-22.531 35.416-4.736 4.683-10.663 7.078-16.691 9.372-2.796 1.064-4.375-0.127-4.496-2.943-0.736-17.193-0.582-34.191 8.302-49.852 9.62-16.952 20.257-33.389 27.1-51.779 1.311-3.592 4.014-7.198 1.686-11.433z" />
<glyph unicode="&#xe90d;" horiz-adv-x="1707" d="M1134.468 874.766c0.033-11.633-9.412-21.146-21.046-21.186-11.647-0.033-21.16 9.399-21.2 21.026-0.040 11.587 9.466 21.173 21.039 21.207 11.593 0.054 21.166-9.466 21.207-21.046z" />
<glyph unicode="&#xe90e;" horiz-adv-x="1707" d="M1268.811 908.536c0.040-11.633-9.412-21.146-21.039-21.186-11.647-0.033-21.16 9.399-21.207 21.026-0.040 11.593 9.466 21.18 21.046 21.213 11.587 0.033 21.16-9.473 21.2-21.053z" />
<glyph unicode="&#xe90f;" horiz-adv-x="1707" d="M1011.303 899.010c0.067-11.6-9.399-21.2-20.972-21.26-11.587-0.067-21.2 9.426-21.26 20.992-0.067 11.607 9.392 21.18 20.992 21.233 11.66 0.054 21.186-9.339 21.24-20.966z" />
<glyph unicode="&#xe910;" horiz-adv-x="1707" d="M884.525 881.737c-0.107-11.553-9.74-21.006-21.327-20.905-11.553 0.1-20.999 9.734-20.899 21.327 0.1 11.553 9.734 20.999 21.32 20.905 11.553-0.094 20.999-9.74 20.905-21.327z" />
<glyph unicode="&#xe911;" horiz-adv-x="1707" d="M765 911.894c-0.1-11.553-9.74-21.006-21.32-20.905-11.553 0.1-20.999 9.734-20.899 21.327 0.1 11.56 9.734 21.006 21.32 20.905 11.547-0.094 20.999-9.734 20.899-21.327z" />
<glyph unicode="&#xe912;" horiz-adv-x="1707" d="M897.109 744.45c76.243 15.132 155.704 14.256 231.833-1.044 22.364-3.967 46.353-8.195 62.536-25.709-49.196-7.526-94.185 21.862-143.254 19.44 33.569-11.707 69.44-14.048 103.37-24.538 0.508-2.589 1.512-7.814 2.014-10.449-25.421 0.040-50.916 2.843-74.992 11.366-60.194 20.738-125.654 19.862-187.734 9.158-29.508-4.469-57.846-18.143-88.198-14.637 26.953 21.534 61.559 28.853 94.426 36.412z" />
<glyph unicode="&#xe913;" horiz-adv-x="1707" d="M1346.185 333.037c0-209.456-160.112-379.255-357.614-379.255-197.508 0-357.621 169.806-357.621 379.255 0 209.463 160.106 379.262 357.621 379.262 197.508 0 357.614-169.799 357.614-379.262zM988.812 718.333c-185.634 0-336.12-159.256-336.12-355.707s150.486-355.707 336.12-355.707 336.12 159.256 336.12 355.707c0 196.458-150.486 355.707-336.12 355.707z" />
<glyph unicode="&#xe914;" glyph-name="duanshipin" horiz-adv-x="1707" d="M1163.749-17.285h-713.662c-23.575 0-42.908 19.246-42.908 42.921v457.224c0 23.762 19.24 43.095 42.908 43.095h713.662c23.682 0 42.921-19.333 42.921-43.095v-48.889h18.812l124.784 109.518c5.773 6.864 20.156 21.046 39.209 18.256 7.412-1.090 21.046-5.787 28.819-25.843l1.532-3.887v-471.139c0.462-12.195-0.535-40.118-19.059-53.217-5.773-3.987-17.902-9.667-34.512-2.81l-3.72 1.539-133.186 123.426h-22.591v-104.086c-0.087-23.769-19.327-43.015-43.008-43.015v0zM452.354 27.803h709.234v452.876h-709.234v-452.876zM1206.67 174.724h40.118l127.955-118.362v2.883l-0.094 1.097v444.561l-132.189-116.034h-35.797v-214.146h0.007zM341.017 258.212c-30.351 0-55.11 24.946-55.11 55.217v134.645c0 30.626 24.759 55.297 55.11 55.297 30.365 0 55.304-24.672 55.304-55.204v-134.638c0-30.365-24.832-55.318-55.304-55.318v0zM341.017 458.188c-5.506 0-10.115-4.435-10.115-10.035v-134.638c0-5.512 4.696-10.035 10.115-10.035 5.519 0 10.229 4.616 10.229 10.035v134.645c0 5.593-4.71 10.028-10.229 10.028v0 0zM986.029 542.038c-94.533 0-171.518 79.702-171.518 177.653 0 97.945 76.986 177.559 171.518 177.559 94.606 0 171.485-79.615 171.485-177.559-0.007-97.945-76.885-177.653-171.485-177.653v0zM986.029 852.155c-69.68 0-126.416-59.452-126.416-132.557s56.649-132.651 126.416-132.651c69.754 0 126.41 59.545 126.41 132.651 0 73.112-56.662 132.557-126.41 132.557v0zM630 543.938c-94.606 0-171.505 79.789-171.505 177.74 0 98.038 76.899 177.646 171.505 177.646s171.505-79.608 171.505-177.646c0-97.951-76.905-177.74-171.505-177.74v0zM630 854.235c-69.767 0-126.416-59.458-126.416-132.557s56.649-132.651 126.416-132.651c69.667 0 126.416 59.552 126.416 132.651 0 73.106-56.662 132.557-126.416 132.557v0z" />
<glyph unicode="&#xe915;" glyph-name="fabu" horiz-adv-x="1707" d="M1053.027 126.196h-507.511c-16.39 0-29.649 13.259-29.649 29.656s13.259 29.656 29.649 29.656h507.511c16.397 0 29.662-13.259 29.662-29.656s-13.266-29.656-29.662-29.656v0zM1108.137-27.293h-617.785c-49.063 0-88.967 39.904-88.967 88.967v764.792c0 49.056 39.911 88.967 88.967 88.967h418.29c16.39 0 29.649-13.266 29.649-29.656s-13.259-29.656-29.649-29.656h-418.29c-16.363 0-29.662-13.293-29.662-29.656v-764.786c0-16.363 13.293-29.662 29.662-29.662h617.792c16.356 0 29.656 13.293 29.656 29.662v236.068c0 16.39 13.266 29.656 29.662 29.656s29.656-13.259 29.656-29.656v-236.075c-0.013-49.063-39.924-88.967-88.98-88.967v0zM730.915 274.12c-7.847 0-15.641 3.158-21.2 8.717-10.075 10.081-10.075 10.081-4.054 82.913l6.456 77.093c3.245 39.182 27.595 91.71 55.425 119.546l283.746 283.772c33.455 33.422 92.265 33.509 125.807 0.027l95.978-96.031c34.686-34.693 34.686-91.101 0-125.801l-283.779-283.719c-27.829-27.829-80.364-52.187-119.539-55.458l-77.093-6.402c-37.162-3.091-57.927-4.656-61.746-4.656v0zM1114.198 812.825c-7.967 0-15.413-3.071-20.966-8.603l-283.752-283.772c-18.243-18.27-36.145-56.816-38.259-82.531l-6.456-77.086c-0.722-8.924-1.418-17.407-2.027-24.986 7.586 0.609 16.069 1.298 24.986 2.054l77.093 6.395c25.715 2.141 64.255 20.042 82.531 38.292l283.772 283.719c11.56 11.547 11.56 30.378 0 41.931l-96.025 96.058c-5.499 5.466-12.945 8.529-20.899 8.529v0z" />
<glyph unicode="&#xe916;" glyph-name="ganxingqu" horiz-adv-x="1707" d="M1207.694 929.588c-113.237 0.067-201.95-66.556-241.988-162.153-40.031 95.603-128.771 162.22-241.995 162.153-108.454 0-202.646-60.796-250.13-150.038-8.971 1.090-18.183 1.666-27.595 1.666-128.082 0-231.914-103.41-231.914-230.97 0-24.391 3.853-47.872 10.878-69.928 67.272-230.034 423.976-507.504 423.976-507.504s65.419 50.902 145.509 127.159c92.686-87.649 167.257-145.649 167.371-145.75l3.893-3.030 3.907 3.030c0.134 0.12 106.635 82.953 223.311 200.271 116.656 117.412 243.607 268.894 284.462 408.168l0.14 0.455c8.463 26.732 13.085 55.177 13.085 84.712-0.007 155.65-126.684 281.779-282.903 281.779l-0.007-0.020zM1465.216 566.355l-2.642-8.282h0.14c-41.925-132.952-165.043-280.367-278.802-394.642-58.034-58.348-113.592-108.18-154.62-143.408-20.517-17.607-37.409-31.569-49.156-41.122-6.456-5.231-11.326-9.138-14.43-11.587-3.097 2.448-7.974 6.349-14.423 11.587-41.115 33.435-145.181 120.897-247.574 229.8-102.42 108.836-203.027 239.379-237.486 357.507l-0.007 0.033-0.033 0.114c-8.195 25.702-12.677 53.043-12.677 81.454 0 74.323 30.224 141.548 79.133 190.263 48.909 48.701 116.422 78.812 191.066 78.819 113.251-0.074 199.883-69.192 235.493-167.759l0.957-2.669 2.636-1.064c0.462-0.174 0.528-0.194 0.716-0.254 0.147-0.054 0.268-0.087 0.288-0.094l1.9-0.602 1.92 0.602c0.1 0.040 0.281 0.080 0.957 0.328l2.669 1.057 0.977 2.703c35.616 98.573 122.228 167.692 235.479 167.766 74.644 0 142.164-30.111 191.079-78.819 48.915-48.715 79.133-115.94 79.133-190.256 0-28.438-4.489-55.766-12.69-81.474v0z" />
<glyph unicode="&#xe917;" glyph-name="gengduo" d="M531.2 194.944c2.752 1.6 5.376 3.648 7.744 6.016l441.344 441.344c14.656 14.656 14.656 38.656 0 53.248v0c-14.656 14.656-38.656 14.656-53.248 0l-415.296-415.296-414.784 414.784c-14.656 14.656-38.656 14.656-53.248 0v0c-14.656-14.656-14.656-38.656 0-53.248l441.344-441.344c12.352-12.48 31.616-14.272 46.144-5.504v0z" />
<glyph unicode="&#xe918;" glyph-name="go_back" horiz-adv-x="1707" d="M869.467 607.664c0 8.79-7.171 15.915-16.162 15.915v0c-8.917 0-16.156-7.365-16.156-15.915v-189.534c0-8.784 7.171-15.915 16.156-15.915v0c8.917 0 16.162 7.365 16.162 15.915v189.534zM817.855 889.296l-264.954-529.908c-16.35-32.699 16.296-69.553 50.942-56.227l247.2 95.322c0.997 0.321 4.382 0.321 8.034-0.602l3.927 15.681-5.813-15.079 247.18-95.316c34.66-13.333 67.306 23.528 50.956 56.221l-264.948 529.908c-16.183 29.682-59.044 29.682-72.784-0.549l0.261 0.549zM847.009 875.381c2.415 5.318 11.259 5.318 14.731-1.050l264.68-529.387c3.265-6.549-3.572-14.276-10.449-11.627l-249.053 95.911c-9.265 2.321-18.812 2.321-26.792-0.348l-247.895-95.57c-6.857-2.642-13.701 5.091-10.436 11.633l265.215 530.437zM854.114 96.641c14.062 0 25.461 11.399 25.461 25.468s-11.399 25.468-25.461 25.468c-14.069 0-25.468-11.399-25.468-25.468s11.399-25.468 25.468-25.468v0zM854.114-30.672c14.062 0 25.461 11.399 25.461 25.468 0 14.062-11.399 25.461-25.461 25.461-14.069 0-25.468-11.399-25.468-25.461 0.007-14.069 11.399-25.468 25.468-25.468v0zM854.114 223.96c14.062 0 25.461 11.399 25.461 25.468 0 14.062-11.399 25.461-25.461 25.461-14.069 0-25.468-11.399-25.468-25.461 0.007-14.069 11.399-25.468 25.468-25.468v0z" />
<glyph unicode="&#xe919;" glyph-name="guanzhu" horiz-adv-x="1707" d="M1388.812 555.845h-345.010v336.006h-230.622v-336.006h-344.897v-231.198h344.89v-336.126h230.622v336.126h345.010v231.198z" />
<glyph unicode="&#xe91a;" glyph-name="huanyihuan" horiz-adv-x="1707" d="M1278.398 351.701c0-1.92-0.194-3.258-0.582-4.021-24.585-102.915-76.036-186.336-154.379-250.25-78.337-63.914-170.114-95.891-275.31-95.911-56.053 0-110.287 10.556-162.701 31.663s-99.169 51.25-140.257 90.425l-74.316-74.316c-7.299-7.299-15.935-10.944-25.909-10.944s-18.611 3.646-25.916 10.944c-7.299 7.299-10.951 15.942-10.951 25.916v258.024c0 9.981 3.653 18.618 10.951 25.916s15.935 10.944 25.916 10.944h258.030c9.974 0 18.611-3.646 25.909-10.944s10.951-15.935 10.951-25.916c0-9.974-3.653-18.611-10.951-25.909l-78.912-78.926c27.247-25.334 58.167-44.915 92.74-58.749s70.483-20.745 107.705-20.718c51.464 0 99.457 12.483 143.983 37.449 44.52 24.966 80.23 59.331 107.116 103.102 4.228 6.536 14.403 29 30.525 67.386 3.077 8.81 8.837 13.226 17.286 13.226h110.582c4.991 0 9.319-1.813 12.971-5.445 3.666-3.639 5.479-7.961 5.459-12.978l0.060 0.033zM1292.814 812.464v-258.024c0-9.981-3.653-18.618-10.951-25.916-7.305-7.299-15.942-10.944-25.916-10.944h-258.024c-9.974 0-18.611 3.646-25.909 10.944s-10.951 15.935-10.951 25.916c0 9.974 3.653 18.611 10.951 25.909l79.468 79.468c-56.809 52.615-123.814 78.919-201 78.919-51.458 0-99.457-12.483-143.977-37.449-44.534-24.966-80.237-59.331-107.123-103.102-4.228-6.536-14.403-28.993-30.519-67.379-3.071-8.824-8.837-13.232-17.286-13.232h-114.602c-4.991 0-9.319 1.813-12.978 5.452s-5.479 7.961-5.452 12.978v4.021c24.966 102.915 76.805 186.33 155.517 250.243 78.712 63.921 170.863 95.891 276.461 95.911 56.053 0 110.588-10.657 163.591-31.957 53.010-21.307 100.045-51.344 141.107-90.124l74.858 74.31c7.299 7.299 15.942 10.951 25.916 10.951s18.611-3.653 25.916-10.951c7.299-7.299 10.944-15.935 10.944-25.909l-0.040-0.033z" />
<glyph unicode="&#xe91b;" glyph-name="jiazai" horiz-adv-x="1707" d="M952.359 788.18c0-68.282-55.324-123.667-123.734-123.667-68.349 0-123.673 55.391-123.673 123.667s55.391 123.667 123.6 123.667c68.356-0.067 123.807-55.391 123.807-123.667v0 0zM1090.931 568.094c28.538 0 57.070 10.878 78.752 32.566 43.437 43.437 43.437 113.933 0 157.37-21.681 21.755-50.287 32.566-78.752 32.566s-56.93-10.871-78.611-32.566c-43.443-43.437-43.443-113.933 0-157.37 21.755-21.681 50.22-32.566 78.611-32.566v0 0zM1199.633 516.068c-54.582-0.067-99.028-44.38-99.028-98.961s44.313-99.035 99.028-99.035 98.961 44.313 98.961 99.035c-0.067 54.649-44.246 98.961-98.961 98.961v0 0zM1091.078 241.407c-22.223 0-44.386-8.529-61.231-25.454-33.843-33.837-33.843-88.619 0-122.322 16.851-16.912 39.008-25.314 61.231-25.314 22.016 0 44.306 8.402 61.218 25.454 33.777 33.703 33.777 88.485 0 122.322-16.912 16.785-39.202 25.314-61.218 25.314v0 0zM828.699 120.356c-40.961 0-74.129-33.435-74.129-74.183 0-41.162 33.168-74.196 74.189-74.196 40.948 0 74.116 33.168 74.116 74.122s-33.228 74.256-74.176 74.256v0 0zM566.254 216.501c-15.848 0-31.689-6.181-43.771-18.196-24.17-24.11-24.17-63.178 0-87.482 12.082-12.088 27.923-18.129 43.704-18.129s31.689 6.041 43.771 18.129c24.11 24.237 24.17 63.439 0 87.482-11.948 12.149-27.863 18.196-43.704 18.196v0 0zM457.552 466.517c-27.328 0-49.477-22.083-49.477-49.484 0-27.18 22.090-49.344 49.477-49.344 27.328 0 49.551 22.016 49.477 49.344 0.074 27.401-22.15 49.484-49.477 49.484v0 0zM566.18 642.357v0c2.355 0 4.636 0.937 6.984 1.345 6.984 1.405 13.828 4.087 19.266 9.533 14.503 14.436 14.503 37.931 0 52.501-7.245 7.185-16.778 10.871-26.251 10.871-9.533 0-18.999-3.693-26.244-10.871-14.503-14.497-14.503-38.004 0-52.434 7.185-7.325 16.778-10.944 26.244-10.944v0 0z" />
<glyph unicode="&#xe91c;" glyph-name="liwu" horiz-adv-x="1707" d="M1205.968 650.010h-271.336c16.952 3.766 35.804 9.426 52.755 16.959 81.026 30.151 137.555 88.566 139.441 139.434 1.88 26.384-13.192 47.109-39.57 60.301-11.299 3.766-24.498 7.539-37.69 7.539-47.103 0-96.092-37.683-145.087-111.17-18.845-30.151-35.804-58.415-45.229-79.146-7.533 20.725-20.725 48.996-39.57 77.26-18.838 32.031-39.57 56.528-58.408 75.373-28.264 26.378-56.528 37.683-84.793 37.683-43.336 0-94.212-28.271-90.445-75.373 1.887-24.498 15.072-48.996 41.45-73.487 24.498-22.611 58.415-43.336 97.978-58.415 18.845-7.533 37.683-13.185 52.762-16.959h-276.976c-54.642 0-99.865-45.229-99.865-99.871 0-56.528 58.408-109.284 113.050-109.284v0-301.48c0-71.6 52.762-131.902 124.362-131.902h431.496c71.6 0 122.483 60.301 122.483 131.902v301.48c-15.072-3.766 0 0 0 0v0c54.642 0 113.050 52.762 113.050 109.284 0.007 54.642-45.216 99.871-99.858 99.871v0 0zM930.865 746.102c22.611 33.924 56.522 81.026 99.865 92.332 35.804 9.419 82.913-16.959 56.528-58.408-24.498-39.57-67.841-65.954-111.17-82.913-32.037-13.192-65.948-20.732-88.559-24.498 9.419 18.845 24.491 47.109 43.336 73.487v0 0zM618.079 800.75v7.533c7.533 37.683 64.068 37.683 90.445 26.384 37.683-16.959 62.181-54.642 82.906-88.566 16.959-28.264 30.144-56.528 37.683-75.373-22.611 3.766-56.528 11.306-90.445 24.498-35.804 15.079-122.476 56.535-120.589 105.524v0 0zM433.415 550.139c0 35.804 24.498 60.295 62.181 60.295h339.17v-131.895h-320.332c-37.677 0-81.020 33.917-81.020 71.6v0 0zM552.132 139.375v301.48c0 1.88 15.072-13.192 0 0h282.642v-395.692h-188.43c-52.769 0-94.212 41.45-94.212 94.212v0 0zM1155.092 440.855v-301.48c0-52.762-22.611-94.212-75.373-94.212h-207.262v395.692h282.635c0 0 0 1.88 0 0v0 0zM1192.782 478.539h-320.325v131.902h339.164c37.683 0 62.181-24.498 62.181-60.295s-43.336-71.607-81.020-71.607v0 0z" />
<glyph unicode="&#xe91d;" glyph-name="looked" horiz-adv-x="1707" d="M851.592 891.53c-299.226-3.385-657.589-377.73-657.589-450.568 0-72.831 330.092-455.652 657.589-450.575 327.51 5.084 657.596 396.368 657.596 450.575 0.007 54.207-358.356 453.953-657.596 450.568v0zM851.592 140.272c-166.053 0-300.677 134.611-300.677 300.671s134.625 300.677 300.677 300.677c166.060 0 300.677-134.618 300.677-300.677s-134.618-300.671-300.677-300.671v0zM729.056 440.119v0c0-67.352 54.602-121.961 121.954-121.961 67.359 0 121.961 54.608 121.961 121.961v0 0c0 67.352-54.602 121.954-121.961 121.954-67.352 0-121.954-54.602-121.954-121.954s0 0 0 0v0z" />
<glyph unicode="&#xe91e;" glyph-name="morentu" horiz-adv-x="1707" d="M633.954 605.356c30.291 0 54.849 24.558 54.849 54.849s-24.558 54.849-54.849 54.849c-30.291 0-54.856-24.558-54.856-54.849s24.565-54.849 54.856-54.849v0zM1292.379 769.603c0 60.582-49.116 109.692-109.699 109.692h-658.218c-60.582 0.007-109.699-49.109-109.699-109.692v-658.198c0-60.589 49.116-109.699 109.699-109.699h658.211c60.589 0 109.699 49.116 109.699 109.699v658.198h0.007zM633.954 769.904c60.582 0 109.699-49.116 109.699-109.699 0-60.576-49.116-109.692-109.699-109.692s-109.705 49.116-109.705 109.692c0 60.582 49.123 109.699 109.705 109.699v0zM524.249 56.556c-30.284 0-68.898 24.866-68.898 55.157v25.769l232.054 194.979 275.678-275.905h-438.834zM1243.892 111.552c0-30.284-31.141-55.003-61.432-55.003h-141.736l-202.071 204.874 234.108 234.181 172.228-165.685-1.097-218.367z" />
<glyph unicode="&#xe91f;" glyph-name="pinlun" horiz-adv-x="1707" d="M1248.622 912.703h-790.026c-55.552 0-98.754-43.202-98.754-98.754v-589.434c0-55.552 43.202-98.761 98.754-98.761h49.37v-123.439c0-18.517 6.175-27.769 18.517-27.769 6.175 0 12.349 3.084 18.524 9.259l178.984 141.956h524.63c55.552 0 98.754 43.209 98.754 98.761v589.434c0 55.545-43.202 98.747-98.754 98.747v0zM1297.999 224.516c0-27.776-21.601-49.377-49.377-49.377h-543.147l-12.343-9.265-135.782-108.013v117.271h-98.747c-27.776 0-49.377 21.601-49.377 49.377v589.434c0 27.776 21.601 49.377 49.377 49.377h790.026c27.776 0 49.377-21.601 49.377-49.377v-589.427h-0.007zM606.727 517.687c0-12.925 5.318-25.776 14.463-34.914 9.138-9.145 21.989-14.463 34.92-14.463 12.925 0 25.776 5.318 34.914 14.463 9.138 9.138 14.463 21.989 14.463 34.914s-5.318 25.776-14.463 34.914c-9.138 9.145-21.989 14.47-34.914 14.47-12.931 0-25.782-5.318-34.92-14.47-9.145-9.138-14.463-21.989-14.463-34.914v0zM804.235 517.687c0-12.925 5.318-25.776 14.463-34.914 9.145-9.145 21.989-14.463 34.92-14.463 12.925 0 25.769 5.318 34.907 14.463 9.138 9.138 14.463 21.989 14.463 34.914s-5.325 25.776-14.463 34.914c-9.138 9.145-21.983 14.47-34.907 14.47-12.931 0-25.776-5.318-34.92-14.47-9.145-9.138-14.463-21.989-14.463-34.914v0zM1001.743 517.687c0-12.925 5.318-25.776 14.457-34.914 9.138-9.145 21.989-14.463 34.92-14.463 12.925 0 25.776 5.318 34.914 14.463 9.138 9.138 14.457 21.989 14.457 34.914s-5.318 25.776-14.457 34.914c-9.138 9.145-21.989 14.47-34.914 14.47-12.931 0-25.782-5.318-34.92-14.47-9.138-9.138-14.457-21.989-14.457-34.914v0z" />
<glyph unicode="&#xe920;" glyph-name="remen_dyna" horiz-adv-x="1707" d="M928.136-25.755c-11.7-2.77-24.076-4.857-36.419-6.924-6.201-1.030-12.396-2.074-16.611-2.85-1.264-0.227-2.535-0.341-3.76-0.341v-0.060h-43.657c-2.683 0-5.238 0.495-7.579 1.418l-0.803 0.274-0.823 0.308c-23.829 1.565-47.169 5.486-69.895 11.714-23.187 6.335-45.691 15.099-67.453 26.21l-0.040-0.074c-40.975 20.872-76.337 46.975-104.969 79.16-28.833 32.419-50.682 70.831-64.335 116.027l-0.288 1.064c-3.873 13.165-6.161 26.13-8.422 39.061-1.264 7.158-2.515 14.336-3.124 17.367-0.288 1.371-0.421 2.729-0.421 4.074h-0.080v41.624c0 1.686 0.194 3.325 0.575 4.89l1.131 7.693c1.037 6.81 2.107 13.66 3.699 22.043l0.134 0.716c4.475 23.896 11.988 46.367 21.855 67.647 9.821 21.22 22.049 41.41 36.018 60.783 9.473 13.132 18.236 24.872 27.007 36.653l0.040 0.047-0.040 0.027c16.457 22.056 32.914 44.132 47.203 65.539v0.007c11.841 17.815 20.491 36.432 25.127 55.786 4.335 18.069 5.278 37.021 2.228 56.809l-2.341 15.059h-0.020l-1.88 12.563c-1.686 11.219 5.887 21.688 16.999 23.648v0l0.194 0.027 0.114 0.027 0.268 0.047c7.707 2.254 15.728-0.161 20.926-5.606h0.020c31.188-32.659 49.337-69.052 58.535-108.086 3.258-13.801 5.372-27.883 6.543-42.232 5.512 12.503 9.941 25.26 13.252 38.265 8.503 33.315 9.633 68.47 2.382 105.671-4.736 24.357-12.262 47.404-22.859 68.791-10.115 20.397-23.113 39.409-39.242 56.716-9.479 10.142-21.193 19.728-32.893 29.308-5.004 4.101-10.008 8.182-17.092 14.309-8.69 7.519-9.627 20.665-2.107 29.355 4.108 4.756 9.914 7.191 15.728 7.191v0.094h17.875c3.345 0 6.489-0.783 9.285-2.174 16.055-1.612 31.649-4.863 46.788-9.426 15.875-4.776 31.321-11.025 46.393-18.33 33.777-16.37 64.369-36.633 92.185-60.141 27.736-23.448 52.682-50.033 75.28-79.12 0.308-0.401 0.615-0.809 0.883-1.224 32.746-42.386 59.82-87.147 79.849-134.872 20.29-48.42 33.315-99.831 37.63-154.821l0.027-0.408c1.626-21.093 1.338-42.052-0.749-62.91-1.077-10.777-2.649-21.487-4.703-32.131 10.737 18.905 18.049 38.607 22.29 59.084 5.579 26.973 6.001 55.505 2.167 85.595-1.438 11.386 6.636 21.795 18.029 23.233 7.191 0.923 14.002-1.973 18.397-7.105l0.040 0.013 1.994-2.214c1.96-2.167 3.251-3.612 4.944-6.369l0.094-0.181c11.46-18.123 21.487-36.874 29.769-56.348 8.442-19.835 15.099-40.413 19.661-61.8 21.213-99.209 2.241-194.785-46.072-271.49-48.795-77.514-127.5-135.648-224.849-158.694l-0.027-0.007zM884.867 8.423c11.138 1.86 22.304 3.74 33.636 6.436l0.027-0.020 0.074 0.020c86.345 20.424 156.052 71.814 199.167 140.291 42.654 67.76 59.358 152.466 40.513 240.664-2.843 13.286-6.576 26.217-11.165 38.794-0.696-4.469-1.478-8.897-2.375-13.299-6.636-32.004-19.36-62.308-39.182-90.88l-0.027 0.013-0.054-0.1c-7.252-10.389-15.514-19.561-24.973-27.381-9.245-7.653-19.715-14.122-31.556-19.287-4.83-2.415-10.603-2.97-16.129-1.084-10.898 3.74-16.684 15.614-12.965 26.505 0.823 2.382 3.111 8.69 5.312 14.804 3.479 9.573 6.864 18.899 9.359 27.956 5.064 18.196 8.57 36.479 10.416 54.896 1.82 18.169 2.054 36.713 0.595 55.645l-0.040 0.328c-3.947 50.481-15.902 97.657-34.526 142.084-18.557 44.273-43.744 85.876-74.283 125.413-0.301 0.341-0.609 0.696-0.903 1.077-20.999 27.040-43.952 51.558-69.239 72.918-25.227 21.32-52.882 39.643-83.374 54.421-11.011 5.345-22.27 10.035-33.763 13.848 18.169-19.822 32.893-41.57 44.487-64.931 12.309-24.846 21.019-51.437 26.465-79.394 8.463-43.457 7.098-84.632-2.877-123.774-9.821-38.506-28.003-74.905-53.384-109.458l-0.763-1.090c-1.499-1.994-3.010-3.539-4.683-5.258l-0.1-0.094-0.074-0.067-1.592-1.693-0.020 0.007c-4.295-4.669-10.643-7.319-17.433-6.623-11.453 1.171-19.782 11.406-18.611 22.839 3.84 37.315 3.612 73.079-4.194 106.206-2.455 10.362-5.66 20.491-9.74 30.365-0.85-8.483-2.281-16.811-4.241-25.013-5.867-24.505-16.47-47.557-30.84-69.165l-0.020 0.007-0.060-0.087c-16.035-24.003-32.218-45.731-48.427-67.433l-0.040 0.027c-9.225-12.383-18.49-24.819-26.639-36.111-12.356-17.159-23.207-35.068-31.957-53.933-8.496-18.357-14.945-37.556-18.738-57.773l-0.14-0.803c-1.090-5.753-2.221-13.185-3.352-20.584l-1.224-7.613v-38.78c1.458-7.265 2.201-11.567 2.97-15.875 2.060-11.794 4.148-23.608 7.312-34.412l0.268-0.83c11.854-39.262 30.713-72.47 55.525-100.366 25.006-28.144 56.294-51.143 92.74-69.694l-0.040-0.067 0.040-0.027c19.2-9.807 39.028-17.527 59.479-23.12 20.063-5.472 40.821-8.938 62.201-10.309l1.097-0.047c3.378-0.261 5.954-0.963 8.289-1.733h38.74c5.92 1.124 10.469 1.887 15.032 2.642v0 0zM819.153-34.117v0 0 0 0 0zM829.362 444.247l2.569 1.759c8.329 5.686 19.795 4.636 26.913-2.937 2.796-2.95 5.499-5.68 8.188-8.362 0.368-0.328 0.743-0.662 1.097-1.010 7.185-7.198 14.376-14.39 21.233-23.314l-0.040-0.027 0.040-0.060c16.437-21.675 29.388-44.728 39.463-68.811 10.041-23.996 17.326-49.089 22.464-74.972 3.76-18.959 6.094-38.185 6.074-57.806 0-19.949-2.469-39.837-8.362-59.586-8.456-28.391-23.32-49.819-43.229-64.75l-0.783-0.609c-20.992-15.473-47.049-23.374-76.725-24.344-17.487-0.575-34.599 0.91-50.942 5.251-16.938 4.489-33.027 11.981-47.852 23.274-16.497 12.583-27.903 27.629-34.834 44.728-6.79 16.744-9.132 35.135-7.727 54.883v0c1.432 20.33 7.807 37.121 18.276 51.23 10.168 13.687 23.896 24.351 40.506 32.92l0.020-0.027 0.060 0.027c11.486 5.894 22.404 12.53 31.897 20.584 8.784 7.439 16.336 16.243 21.956 27.040l0.060-0.040 0.020 0.040c4.85 9.285 8.596 19.24 11.433 29.656v-0.013c2.836 10.49 4.663 21.079 5.68 31.689l0.040 0.522c0.977 10.081 1.766 21.962 2.549 33.783l0.903 13.466h0.013c0.408 6.148 3.546 12.068 9.038 15.815v0 0zM858.703 381.845l-0.421-4.569-0.060-0.636c-1.258-13.252-3.472-26.144-6.803-38.513l-0.020-0.060 0.020-0.013c-3.472-12.797-8.329-25.495-14.831-37.951l0.060-0.033c-8.289-15.902-19.313-28.779-32.071-39.597-12.001-10.188-25.588-18.47-39.817-25.769l0.013-0.027c-11.159-5.76-20.063-12.51-26.164-20.711-5.753-7.753-9.285-17.347-10.128-29.274v-0.087c-0.957-13.48 0.522-25.669 4.817-36.292 4.168-10.275 11.165-19.427 21.467-27.267 10.235-7.794 21.38-12.985 33.141-16.109 12.349-3.278 25.488-4.388 39.048-3.954 21.193 0.696 39.362 6.014 53.398 16.37l0.462 0.328c12.751 9.613 22.437 23.916 28.237 43.33 4.736 15.902 6.737 31.803 6.737 47.671 0 16.189-2.094 32.88-5.452 49.812-4.616 23.267-11.105 45.704-20.002 66.984-8.322 19.902-18.738 38.794-31.629 56.368v0 0z" />
<glyph unicode="&#xe921;" glyph-name="sousuo" horiz-adv-x="1707" d="M787.644 93.477c-227.739 0-413.018 185.279-413.018 413.012s185.279 413.005 413.018 413.005c227.732 0 413.025-185.279 413.025-413.005 0-227.732-185.293-413.012-413.025-413.012zM787.644 817.829c-171.686 0-311.354-139.669-311.354-311.348s139.669-311.354 311.354-311.354c171.686 0 311.354 139.675 311.354 311.354s-139.675 311.348-311.354 311.348zM1270.036-38.438c-16.022 0-32.024 6.108-44.239 18.317l-215.785 215.764c-24.424 24.431-24.424 64.041 0 88.479 24.444 24.424 64.048 24.424 88.485 0l215.778-215.764c24.431-24.424 24.431-64.034 0-88.479-12.222-12.202-28.231-18.317-44.239-18.317z" />
<glyph unicode="&#xe922;" glyph-name="toupiao" horiz-adv-x="1707" d="M1033.747 550.915l-27.602 27.609-164.381-164.367-79.655 79.662-27.622-27.629 106.668-106.648 0.615 0.609 0.595-0.609 191.38 191.374zM1385.728 106.381h-474.216l403.011 403.017-398.107 398.107-493.409-493.436 307.708-307.688h-415.962l-55.070-134.772h1186.099l-60.054 134.772zM494.874 414.070l421.541 421.548 326.219-326.226-403.004-403.011h-37.061l-307.695 307.688zM1122.299 18.772h-539.127v40.446h539.127v-40.446zM818.31 18.772l2.783-2.796 2.823 2.796h-5.606z" />
<glyph unicode="&#xe923;" glyph-name="xiala" horiz-adv-x="1707" d="M853.090-16.014c-20.069 0-39.276 7.967-53.438 22.136l-764.137 764.197c-29.508 29.529-29.508 77.354 0 106.882 29.529 29.502 77.347 29.502 106.875 0l710.706-710.786 710.686 710.786c29.529 29.502 77.347 29.502 106.875 0 29.508-29.529 29.508-77.354 0-106.882l-764.143-764.197c-14.162-14.169-33.355-22.136-53.424-22.136v0z" />
<glyph unicode="&#xe924;" glyph-name="xiazai" horiz-adv-x="1707" d="M408.443 29.657v102.761h882.679v-102.761h-882.679zM516.201 592.94h199.261v345.405h268.64v-345.405h199.214l-333.538-333.611-333.578 333.611z" />
<glyph unicode="&#xe925;" glyph-name="xihuan" horiz-adv-x="1707" d="M1118.386 834.808c138.224 0 211.577-112.836 211.577-222.856 0-253.883-369.548-504.949-479.561-561.37-62.067 36.673-479.561 290.563-479.561 561.37 0 110.020 73.34 222.856 211.57 222.856h8.463c84.625 0 163.618-42.313 214.393-110.013l45.136-64.884 45.136 64.884c47.952 67.7 129.761 110.013 214.393 110.013h8.456zM1118.386 891.223h-8.463c-101.557 0-200.284-50.775-259.522-135.407-59.238 84.632-155.155 135.407-259.529 135.407h-8.463c-174.897 0-267.991-141.040-267.991-279.27 0-324.413 496.486-606.499 519.051-617.785 5.646-2.823 11.286-5.639 16.925-5.639s11.279 2.816 16.925 5.639c22.571 11.292 519.051 290.563 519.051 617.785 0 138.23-93.088 279.27-267.985 279.27v0 0z" />
<glyph unicode="&#xe926;" glyph-name="youce" horiz-adv-x="552" d="M513.631 447.55c0-11.925-4.139-23.328-11.501-31.742l-397.008-453.832c-15.33-17.509-40.186-17.509-55.523 0-15.322 17.532-15.322 45.929 0 63.491l369.269 422.091-369.269 422.068c-15.315 17.539-15.315 45.936 0 63.491 15.345 17.509 40.193 17.509 55.523 0l397-453.832c7.37-8.422 11.509-19.824 11.509-31.734v0z" />
<glyph unicode="&#xe927;" glyph-name="zuoce" horiz-adv-x="501" d="M17.467 446.335c0 11.581 4.030 22.683 11.205 30.875l386.527 441.86c14.925 17.047 39.133 17.047 54.058 0 14.911-17.076 14.911-44.724 0-61.816l-359.535-410.926 359.527-410.956c14.918-17.084 14.918-44.732 0-61.816-14.933-17.047-39.14-17.047-54.058 0l-386.534 441.874c-7.161 8.192-11.19 19.294-11.19 30.904v0z" />
</font>
</defs>
</svg>
